#!OML:ASF E:\motion texture\Top Level 1\Subject 1\Session 1\male.ASF
:FULLY-SPECIFIED
:DEGREES
111
root 15.3501 17.6717 6.30373 -42.9286 -87.0155 50.8891
lowerback 0.995202 -2.7348 -3.98961
upperback -1.38921 -3.70018 2.68124
thorax -1.55915 -1.79098 5.08002
lowerneck -12.0533 -6.65075 -8.45266
upperneck 9.93934 -8.16857 5.19637
head 5.5285 -3.96531 2.28297
rclavicle 2.38542e-014 -5.56597e-015
rhumerus -52.4064 -21.8055 -52.4465
rradius 26.1948
rwrist 9.8656
rhand -11.3755 -32.5869
rfingers 7.12502
rthumb 14.6588 -62.0487
lclavicle 2.38542e-014 -5.56597e-015
lhumerus -33.1149 16.0207 67.613
lradius 38.1718
lwrist -18.3063
lhand -11.6555 22.1796
lfingers 7.12502
lthumb 14.3889 51.6609
rfemur -37.7233 -4.60325 12.8314
rtibia 21.081
rfoot -4.99009 -16.913
rtoes 4.30978
lfemur -0.952193 -4.22351 -23.0782
ltibia 16.0042
lfoot -15.7495 1.87299
ltoes -10.7197
112
root 15.2212 17.6571 6.28718 -45.1357 -86.9893 53.2437
lowerback 0.880587 -2.7757 -4.06971
upperback -1.42454 -3.75304 2.66315
thorax -1.52138 -1.81695 5.10145
lowerneck -12.0358 -6.90608 -8.63166
upperneck 9.95131 -8.54725 5.65908
head 5.58424 -4.12553 2.41838
rclavicle -4.77083e-015 -1.11319e-014
rhumerus -51.8347 -21.4033 -53.3627
rradius 27.5204
rwrist 8.14826
rhand -11.2134 -32.3534
rfingers 7.12502
rthumb 14.8149 -61.8038
lclavicle -4.77083e-015 -1.11319e-014
lhumerus -33.0704 16.1129 67.6616
lradius 39.6087
lwrist -17.291
lhand -11.2094 21.7805
lfingers 7.12502
lthumb 14.8188 51.2307
rfemur -37.411 -3.69897 12.2406
rtibia 18.9979
rfoot -5.22668 -16.8799
rtoes 3.62235
lfemur -0.670647 -4.1138 -23.0991
ltibia 16.0707
lfoot -15.9224 1.7996
ltoes -11.4254
113
root 15.0906 17.642 6.27047 -46.9273 -86.9728 55.1573
lowerback 0.772727 -2.81303 -4.12361
upperback -1.44994 -3.80067 2.64382
thorax -1.47938 -1.84095 5.10663
lowerneck -11.9744 -7.20897 -8.86476
upperneck 9.91231 -9.00381 6.26796
head 5.63478 -4.31685 2.6013
rclavicle 1.30204e-014 1.35174e-014
rhumerus -51.2289 -20.9971 -54.2476
rradius 28.924
rwrist 6.45855
rhand -11.1394 -32.1253
rfingers 7.12502
rthumb 14.8862 -61.5705
lclavicle 1.30204e-014 1.35174e-014
lhumerus -33.0068 16.3837 67.7172
lradius 41.2197
lwrist -16.1947
lhand -10.7442 21.4633
lfingers 7.12502
lthumb 15.2669 50.8798
rfemur -37.1131 -2.81336 11.6807
rtibia 17.2106
rfoot -5.42846 -16.9725
rtoes 3.034
lfemur -0.368873 -4.02897 -23.0996
ltibia 16.1634
lfoot -16.0961 1.75152
ltoes -12.1556
114
root 14.9588 17.6264 6.25396 -48.2371 -86.9727 56.5639
lowerback 0.660313 -2.8467 -4.14258
upperback -1.45533 -3.84242 2.62396
thorax -1.41706 -1.8634 5.09039
lowerneck -11.8658 -7.55568 -9.12698
upperneck 9.80145 -9.53644 7.01762
head 5.674 -4.53866 2.8263
rclavicle -1.799e-014 8.74653e-015
rhumerus -50.5641 -20.6273 -55.0765
rradius 30.4003
rwrist 4.83541
rhand -11.1851 -31.9654
rfingers 7.12502
rthumb 14.8422 -61.4138
lclavicle -1.799e-014 8.74653e-015
lhumerus -32.8871 16.8052 67.8078
lradius 43.0216
lwrist -15.0352
lhand -10.3502 21.3235
lfingers 7.12502
lthumb 15.6464 50.7108
rfemur -36.855 -2.01617 11.2067
rtibia 15.7885
rfoot -5.59908 -17.1582
rtoes 2.4854
lfemur -0.05452 -3.9754 -23.076
ltibia 16.292
lfoot -16.2703 1.73319
ltoes -12.8947
115
root 14.8261 17.6101 6.23764 -49.0135 -86.9933 57.4129
lowerback 0.555584 -2.87641 -4.1325
upperback -1.45112 -3.87856 2.60995
thorax -1.35125 -1.88367 5.06383
lowerneck -11.7014 -7.93377 -9.3925
upperneck 9.62564 -10.1305 7.88129
head 5.70141 -4.7861 3.08238
rclavicle 1.17283e-014 4.77083e-015
rhumerus -49.8421 -20.3003 -55.8191
rradius 31.9559
rwrist 3.31256
rhand -11.3585 -31.9242
rfingers 7.12502
rthumb 14.6752 -61.3849
lclavicle 1.17283e-014 4.77083e-015
lhumerus -32.7138 17.3056 67.9668
lradius 45.0428
lwrist -13.8467
lhand -10.1169 21.5264
lfingers 7.12502
lthumb 15.8711 50.8959
rfemur -36.6641 -1.39502 10.8777
rtibia 14.8034
rfoot -5.74593 -17.3508
rtoes 1.96977
lfemur 0.265712 -3.94682 -23.0201
ltibia 16.4617
lfoot -16.4431 1.73104
ltoes -13.6389
